<svg width="400" height="400" viewBox="0 0 400 400" fill="none" xmlns="http://www.w3.org/2000/svg">
  <rect width="400" height="400" fill="#f3f4f6"/>
  <path d="M200 120C177.909 120 160 137.909 160 160C160 182.091 177.909 200 200 200C222.091 200 240 182.091 240 160C240 137.909 222.091 160 200 120Z" fill="#d1d5db"/>
  <path d="M120 240C120 217.909 137.909 200 160 200H240C262.091 200 280 217.909 280 240V280C280 302.091 262.091 320 240 320H160C137.909 320 120 302.091 120 280V240Z" fill="#d1d5db"/>
  <path d="M140 180H260M140 200H260M140 220H260" stroke="#9ca3af" stroke-width="2" stroke-linecap="round"/>
</svg>